<svg xmlns:xlink="http://www.w3.org/1999/xlink" width="64" height="64" viewBox="0 0 64 64" fill="none" xmlns="http://www.w3.org/2000/svg"><path d="M25.3339 18.6668C27.5472 18.6668 29.3339 20.4535 29.3339 22.6668C29.3339 24.8802 27.5472 26.6669 25.3339 26.6669C23.1206 26.6669 21.3339 24.8802 21.3339 22.6668C21.3339 20.4535 23.1206 18.6668 25.3339 18.6668ZM38.6672 37.3335C40.8806 37.3335 42.6672 39.1202 42.6672 41.3335C42.6672 43.5469 40.8806 45.3335 38.6672 45.3335C36.4539 45.3335 34.6672 43.5469 34.6672 41.3335C34.6672 39.1202 36.4539 37.3335 38.6672 37.3335ZM22.4272 45.3335L18.6672 41.5735L41.5739 18.6668L45.3339 22.4268L22.4272 45.3335ZM49.7339 7.60018L51.3606 17.8935L60.7206 22.6668L56.0006 32.0002L60.7472 41.3335L51.3072 46.1069L49.6806 56.4002L39.3072 54.7735L31.9206 62.1602L24.5072 54.6669L14.2139 56.3735L12.5606 46.0002L3.25391 41.2535L8.00057 31.9202L3.28057 22.6668L12.6406 17.8402L14.2672 7.65352L24.5872 9.33352L32.0006 1.85352L39.3606 9.22685L49.7339 7.60018ZM53.6006 24.9869L46.6672 21.3335L45.3339 13.6268L37.6006 14.7468L32.0006 9.33352L26.4006 14.7468L18.6672 13.6268L17.3339 21.3335L10.4006 24.9869L13.8672 32.0002L10.4006 39.0135L17.3339 42.6669L18.6672 50.3735L26.4006 49.2535L32.0006 54.6669L37.6006 49.2535L45.3339 50.3735L46.6672 42.6669L53.6006 39.0135L50.1339 32.0002L53.6006 24.9869Z" fill="#6E71CC"></path></svg>