<svg xmlns:xlink="http://www.w3.org/1999/xlink" xmlns="http://www.w3.org/2000/svg" width="188" height="132" viewBox="0 0 188 132" fill="none">
<circle cx="3" cy="3" r="3" transform="matrix(1.19249e-08 -1 -1 -1.19249e-08 132 132)" fill="#D6E2FA"/>
<circle cx="3" cy="3" r="3" transform="matrix(1.19249e-08 -1 -1 -1.19249e-08 62 132)" fill="#D6E2FA"/>
<circle cx="3" cy="3" r="3" transform="matrix(1.19249e-08 -1 -1 -1.19249e-08 132 118)" fill="#D6E2FA"/>
<circle cx="3" cy="3" r="3" transform="matrix(1.19249e-08 -1 -1 -1.19249e-08 62 118)" fill="#D6E2FA"/>
<circle cx="3" cy="3" r="3" transform="matrix(1.19249e-08 -1 -1 -1.19249e-08 132 104)" fill="#D6E2FA"/>
<circle cx="3" cy="3" r="3" transform="matrix(1.19249e-08 -1 -1 -1.19249e-08 62 104)" fill="#D6E2FA"/>
<circle cx="3" cy="3" r="3" transform="matrix(1.19249e-08 -1 -1 -1.19249e-08 132 90)" fill="#D6E2FA"/>
<circle cx="3" cy="3" r="3" transform="matrix(1.19249e-08 -1 -1 -1.19249e-08 62 90)" fill="#D6E2FA"/>
<circle cx="3" cy="3" r="3" transform="matrix(1.19249e-08 -1 -1 -1.19249e-08 118 132)" fill="#D6E2FA"/>
<circle cx="3" cy="3" r="3" transform="matrix(1.19249e-08 -1 -1 -1.19249e-08 48 132)" fill="#D6E2FA"/>
<circle cx="3" cy="3" r="3" transform="matrix(1.19249e-08 -1 -1 -1.19249e-08 118 118)" fill="#D6E2FA"/>
<circle cx="3" cy="3" r="3" transform="matrix(1.19249e-08 -1 -1 -1.19249e-08 48 118)" fill="#D6E2FA"/>
<circle cx="3" cy="3" r="3" transform="matrix(1.19249e-08 -1 -1 -1.19249e-08 118 104)" fill="#D6E2FA"/>
<circle cx="3" cy="3" r="3" transform="matrix(1.19249e-08 -1 -1 -1.19249e-08 48 104)" fill="#D6E2FA"/>
<circle cx="3" cy="3" r="3" transform="matrix(1.19249e-08 -1 -1 -1.19249e-08 118 90)" fill="#D6E2FA"/>
<circle cx="3" cy="3" r="3" transform="matrix(1.19249e-08 -1 -1 -1.19249e-08 48 90)" fill="#D6E2FA"/>
<circle cx="3" cy="3" r="3" transform="matrix(1.19249e-08 -1 -1 -1.19249e-08 104 132)" fill="#D6E2FA"/>
<circle cx="3" cy="3" r="3" transform="matrix(1.19249e-08 -1 -1 -1.19249e-08 34 132)" fill="#D6E2FA"/>
<circle cx="3" cy="3" r="3" transform="matrix(1.19249e-08 -1 -1 -1.19249e-08 104 118)" fill="#D6E2FA"/>
<circle cx="3" cy="3" r="3" transform="matrix(1.19249e-08 -1 -1 -1.19249e-08 34 118)" fill="#D6E2FA"/>
<circle cx="3" cy="3" r="3" transform="matrix(1.19249e-08 -1 -1 -1.19249e-08 104 104)" fill="#D6E2FA"/>
<circle cx="3" cy="3" r="3" transform="matrix(1.19249e-08 -1 -1 -1.19249e-08 34 104)" fill="#D6E2FA"/>
<circle cx="3" cy="3" r="3" transform="matrix(1.19249e-08 -1 -1 -1.19249e-08 104 90)" fill="#D6E2FA"/>
<circle cx="3" cy="3" r="3" transform="matrix(1.19249e-08 -1 -1 -1.19249e-08 34 90)" fill="#D6E2FA"/>
<circle cx="3" cy="3" r="3" transform="matrix(1.19249e-08 -1 -1 -1.19249e-08 90 132)" fill="#D6E2FA"/>
<circle cx="3" cy="3" r="3" transform="matrix(1.19249e-08 -1 -1 -1.19249e-08 20 132)" fill="#D6E2FA"/>
<circle cx="3" cy="3" r="3" transform="matrix(1.19249e-08 -1 -1 -1.19249e-08 90 118)" fill="#D6E2FA"/>
<circle cx="3" cy="3" r="3" transform="matrix(1.19249e-08 -1 -1 -1.19249e-08 20 118)" fill="#D6E2FA"/>
<circle cx="3" cy="3" r="3" transform="matrix(1.19249e-08 -1 -1 -1.19249e-08 90 104)" fill="#D6E2FA"/>
<circle cx="3" cy="3" r="3" transform="matrix(1.19249e-08 -1 -1 -1.19249e-08 20 104)" fill="#D6E2FA"/>
<circle cx="3" cy="3" r="3" transform="matrix(1.19249e-08 -1 -1 -1.19249e-08 90 90)" fill="#D6E2FA"/>
<circle cx="3" cy="3" r="3" transform="matrix(1.19249e-08 -1 -1 -1.19249e-08 20 90)" fill="#D6E2FA"/>
<circle cx="3" cy="3" r="3" transform="matrix(1.19249e-08 -1 -1 -1.19249e-08 76 132)" fill="#D6E2FA"/>
<circle cx="3" cy="3" r="3" transform="matrix(1.19249e-08 -1 -1 -1.19249e-08 6 132)" fill="#D6E2FA"/>
<circle cx="3" cy="3" r="3" transform="matrix(1.19249e-08 -1 -1 -1.19249e-08 76 118)" fill="#D6E2FA"/>
<circle cx="3" cy="3" r="3" transform="matrix(1.19249e-08 -1 -1 -1.19249e-08 6 118)" fill="#D6E2FA"/>
<circle cx="3" cy="3" r="3" transform="matrix(1.19249e-08 -1 -1 -1.19249e-08 76 104)" fill="#D6E2FA"/>
<circle cx="3" cy="3" r="3" transform="matrix(1.19249e-08 -1 -1 -1.19249e-08 6 104)" fill="#D6E2FA"/>
<circle cx="3" cy="3" r="3" transform="matrix(1.19249e-08 -1 -1 -1.19249e-08 76 90)" fill="#D6E2FA"/>
<circle cx="3" cy="3" r="3" transform="matrix(1.19249e-08 -1 -1 -1.19249e-08 6 90)" fill="#D6E2FA"/>
<circle cx="3" cy="3" r="3" transform="matrix(-1 3.17865e-08 3.17865e-08 1 188 0)" fill="#D6E2FA"/>
<circle cx="3" cy="3" r="3" transform="matrix(-1 3.17865e-08 3.17865e-08 1 188 70)" fill="#D6E2FA"/>
<circle cx="3" cy="3" r="3" transform="matrix(-1 3.17865e-08 3.17865e-08 1 174 0)" fill="#D6E2FA"/>
<circle cx="3" cy="3" r="3" transform="matrix(-1 3.17865e-08 3.17865e-08 1 174 70)" fill="#D6E2FA"/>
<circle cx="3" cy="3" r="3" transform="matrix(-1 3.17865e-08 3.17865e-08 1 160 0)" fill="#D6E2FA"/>
<circle cx="3" cy="3" r="3" transform="matrix(-1 3.17865e-08 3.17865e-08 1 160 70)" fill="#D6E2FA"/>
<circle cx="3" cy="3" r="3" transform="matrix(-1 3.17865e-08 3.17865e-08 1 146 0)" fill="#D6E2FA"/>
<circle cx="3" cy="3" r="3" transform="matrix(-1 3.17865e-08 3.17865e-08 1 146 70)" fill="#D6E2FA"/>
<circle cx="3" cy="3" r="3" transform="matrix(-1 3.17865e-08 3.17865e-08 1 188 14)" fill="#D6E2FA"/>
<circle cx="3" cy="3" r="3" transform="matrix(-1 3.17865e-08 3.17865e-08 1 188 84)" fill="#D6E2FA"/>
<circle cx="3" cy="3" r="3" transform="matrix(-1 3.17865e-08 3.17865e-08 1 174 14)" fill="#D6E2FA"/>
<circle cx="3" cy="3" r="3" transform="matrix(-1 3.17865e-08 3.17865e-08 1 174 84)" fill="#D6E2FA"/>
<circle cx="3" cy="3" r="3" transform="matrix(-1 3.17865e-08 3.17865e-08 1 160 14)" fill="#D6E2FA"/>
<circle cx="3" cy="3" r="3" transform="matrix(-1 3.17865e-08 3.17865e-08 1 160 84)" fill="#D6E2FA"/>
<circle cx="3" cy="3" r="3" transform="matrix(-1 3.17865e-08 3.17865e-08 1 146 14)" fill="#D6E2FA"/>
<circle cx="3" cy="3" r="3" transform="matrix(-1 3.17865e-08 3.17865e-08 1 146 84)" fill="#D6E2FA"/>
<circle cx="3" cy="3" r="3" transform="matrix(-1 3.17865e-08 3.17865e-08 1 188 28)" fill="#D6E2FA"/>
<circle cx="3" cy="3" r="3" transform="matrix(-1 3.17865e-08 3.17865e-08 1 188 98)" fill="#D6E2FA"/>
<circle cx="3" cy="3" r="3" transform="matrix(-1 3.17865e-08 3.17865e-08 1 174 28)" fill="#D6E2FA"/>
<circle cx="3" cy="3" r="3" transform="matrix(-1 3.17865e-08 3.17865e-08 1 174 98)" fill="#D6E2FA"/>
<circle cx="3" cy="3" r="3" transform="matrix(-1 3.17865e-08 3.17865e-08 1 160 28)" fill="#D6E2FA"/>
<circle cx="3" cy="3" r="3" transform="matrix(-1 3.17865e-08 3.17865e-08 1 160 98)" fill="#D6E2FA"/>
<circle cx="3" cy="3" r="3" transform="matrix(-1 3.17865e-08 3.17865e-08 1 146 28)" fill="#D6E2FA"/>
<circle cx="3" cy="3" r="3" transform="matrix(-1 3.17865e-08 3.17865e-08 1 146 98)" fill="#D6E2FA"/>
<circle cx="3" cy="3" r="3" transform="matrix(-1 3.17865e-08 3.17865e-08 1 188 42)" fill="#D6E2FA"/>
<circle cx="3" cy="3" r="3" transform="matrix(-1 3.17865e-08 3.17865e-08 1 188 112)" fill="#D6E2FA"/>
<circle cx="3" cy="3" r="3" transform="matrix(-1 3.17865e-08 3.17865e-08 1 174 42)" fill="#D6E2FA"/>
<circle cx="3" cy="3" r="3" transform="matrix(-1 3.17865e-08 3.17865e-08 1 174 112)" fill="#D6E2FA"/>
<circle cx="3" cy="3" r="3" transform="matrix(-1 3.17865e-08 3.17865e-08 1 160 42)" fill="#D6E2FA"/>
<circle cx="3" cy="3" r="3" transform="matrix(-1 3.17865e-08 3.17865e-08 1 160 112)" fill="#D6E2FA"/>
<circle cx="3" cy="3" r="3" transform="matrix(-1 3.17865e-08 3.17865e-08 1 146 42)" fill="#D6E2FA"/>
<circle cx="3" cy="3" r="3" transform="matrix(-1 3.17865e-08 3.17865e-08 1 146 112)" fill="#D6E2FA"/>
<circle cx="3" cy="3" r="3" transform="matrix(-1 3.17865e-08 3.17865e-08 1 188 56)" fill="#D6E2FA"/>
<circle cx="3" cy="3" r="3" transform="matrix(-1 3.17865e-08 3.17865e-08 1 188 126)" fill="#D6E2FA"/>
<circle cx="3" cy="3" r="3" transform="matrix(-1 3.17865e-08 3.17865e-08 1 174 56)" fill="#D6E2FA"/>
<circle cx="3" cy="3" r="3" transform="matrix(-1 3.17865e-08 3.17865e-08 1 174 126)" fill="#D6E2FA"/>
<circle cx="3" cy="3" r="3" transform="matrix(-1 3.17865e-08 3.17865e-08 1 160 56)" fill="#D6E2FA"/>
<circle cx="3" cy="3" r="3" transform="matrix(-1 3.17865e-08 3.17865e-08 1 160 126)" fill="#D6E2FA"/>
<circle cx="3" cy="3" r="3" transform="matrix(-1 3.17865e-08 3.17865e-08 1 146 56)" fill="#D6E2FA"/>
<circle cx="3" cy="3" r="3" transform="matrix(-1 3.17865e-08 3.17865e-08 1 146 126)" fill="#D6E2FA"/>
</svg>