<svg xmlns:xlink="http://www.w3.org/1999/xlink" width="64" height="64" viewBox="0 0 64 64" fill="none" xmlns="http://www.w3.org/2000/svg"><path d="M50.6667 7.99984V55.9998H34.6667V46.6665H29.3333V55.9998H13.3333V7.99984H50.6667ZM40 18.6665H45.3333V13.3332H40V18.6665ZM29.3333 18.6665H34.6667V13.3332H29.3333V18.6665ZM18.6667 18.6665H24V13.3332H18.6667V18.6665ZM40 29.3332H45.3333V23.9998H40V29.3332ZM29.3333 29.3332H34.6667V23.9998H29.3333V29.3332ZM18.6667 29.3332H24V23.9998H18.6667V29.3332ZM40 39.9998H45.3333V34.6665H40V39.9998ZM29.3333 39.9998H34.6667V34.6665H29.3333V39.9998ZM18.6667 39.9998H24V34.6665H18.6667V39.9998ZM40 50.6665H45.3333V45.3332H40V50.6665ZM18.6667 50.6665H24V45.3332H18.6667V50.6665ZM56 2.6665H8V61.3332H56V2.6665Z" fill="#6E71CC"></path></svg>