<svg xmlns:xlink="http://www.w3.org/1999/xlink" width="64" height="64" viewBox="0 0 64 64" fill="none" xmlns="http://www.w3.org/2000/svg"><path d="M32 16C34.96 16 37.3333 13.6 37.3333 10.6667C37.3333 9.65333 37.0667 8.72 36.56 7.92L32 0L27.44 7.92C26.9333 8.72 26.6667 9.65333 26.6667 10.6667C26.6667 13.6 29.0667 16 32 16ZM48 24H34.6667V18.6667H29.3333V24H16C11.5733 24 8 27.5733 8 32V56C8 57.4667 9.2 58.6667 10.6667 58.6667H53.3333C54.8 58.6667 56 57.4667 56 56V32C56 27.5733 52.4267 24 48 24ZM50.6667 53.3333H13.3333V45.3333C15.7333 45.3333 18.0267 44.3467 19.7333 42.6667L22.6667 39.7867L25.4933 42.6667C28.9867 46.1333 35.0667 46.1067 38.5333 42.6667L41.4133 39.7867L44.2667 42.6667C45.9733 44.3467 48.2667 45.3333 50.6667 45.3333V53.3333ZM50.6667 41.3333C49.3333 41.3333 48 40.8 47.0667 39.8133L41.3333 34.1333L35.68 39.8133C33.7067 41.7867 30.2667 41.7867 28.2933 39.8133L22.6667 34.1333L16.9067 39.8133C16 40.7733 14.6667 41.3333 13.3333 41.3333V32C13.3333 30.5333 14.5333 29.3333 16 29.3333H48C49.4667 29.3333 50.6667 30.5333 50.6667 32V41.3333Z" fill="#6E71CC"></path></svg>