<svg xmlns:xlink="http://www.w3.org/1999/xlink" width="64" height="64" viewBox="0 0 64 64" fill="none" xmlns="http://www.w3.org/2000/svg"><path d="M33.7854 55.3067L31.9987 56.9333L28.132 53.4133C14.3987 40.96 5.33203 32.72 5.33203 22.6667C5.33203 14.4267 11.7854 8 19.9987 8C24.6387 8 29.092 10.16 31.9987 13.5467C34.9054 10.16 39.3587 8 43.9987 8C52.212 8 58.6654 14.4267 58.6654 22.6667C58.6654 26.48 57.332 30.0267 54.9854 33.6267C53.332 32.8267 51.492 32.2933 49.572 32.1067C51.9987 28.8 53.332 25.7333 53.332 22.6667C53.332 17.3333 49.332 13.3333 43.9987 13.3333C39.892 13.3333 35.892 16 34.4787 19.6267H29.5187C28.1054 16 24.1054 13.3333 19.9987 13.3333C14.6654 13.3333 10.6654 17.3333 10.6654 22.6667C10.6654 30.3733 19.0387 37.9733 31.7054 49.4667L31.9987 49.7333L32.1054 49.6267C32.3187 51.6533 32.9054 53.5733 33.7854 55.3067ZM45.332 37.3333V45.3333H37.332V50.6667H45.332V58.6667H50.6654V50.6667H58.6654V45.3333H50.6654V37.3333H45.332Z" fill="#6E71CC"></path></svg>