<svg xmlns:xlink="http://www.w3.org/1999/xlink" xmlns="http://www.w3.org/2000/svg" width="188" height="132" viewBox="0 0 188 132" fill="none">
<circle cx="3" cy="3" r="3" fill="#D6E2FA"/>
<circle cx="3" cy="73" r="3" fill="#D6E2FA"/>
<circle cx="17" cy="3" r="3" fill="#D6E2FA"/>
<circle cx="17" cy="73" r="3" fill="#D6E2FA"/>
<circle cx="31" cy="3" r="3" fill="#D6E2FA"/>
<circle cx="31" cy="73" r="3" fill="#D6E2FA"/>
<circle cx="45" cy="3" r="3" fill="#D6E2FA"/>
<circle cx="45" cy="73" r="3" fill="#D6E2FA"/>
<circle cx="3" cy="17" r="3" fill="#D6E2FA"/>
<circle cx="3" cy="87" r="3" fill="#D6E2FA"/>
<circle cx="17" cy="17" r="3" fill="#D6E2FA"/>
<circle cx="17" cy="87" r="3" fill="#D6E2FA"/>
<circle cx="31" cy="17" r="3" fill="#D6E2FA"/>
<circle cx="31" cy="87" r="3" fill="#D6E2FA"/>
<circle cx="45" cy="17" r="3" fill="#D6E2FA"/>
<circle cx="45" cy="87" r="3" fill="#D6E2FA"/>
<circle cx="3" cy="31" r="3" fill="#D6E2FA"/>
<circle cx="3" cy="101" r="3" fill="#D6E2FA"/>
<circle cx="17" cy="31" r="3" fill="#D6E2FA"/>
<circle cx="17" cy="101" r="3" fill="#D6E2FA"/>
<circle cx="31" cy="31" r="3" fill="#D6E2FA"/>
<circle cx="31" cy="101" r="3" fill="#D6E2FA"/>
<circle cx="45" cy="31" r="3" fill="#D6E2FA"/>
<circle cx="45" cy="101" r="3" fill="#D6E2FA"/>
<circle cx="3" cy="45" r="3" fill="#D6E2FA"/>
<circle cx="3" cy="115" r="3" fill="#D6E2FA"/>
<circle cx="17" cy="45" r="3" fill="#D6E2FA"/>
<circle cx="17" cy="115" r="3" fill="#D6E2FA"/>
<circle cx="31" cy="45" r="3" fill="#D6E2FA"/>
<circle cx="31" cy="115" r="3" fill="#D6E2FA"/>
<circle cx="45" cy="45" r="3" fill="#D6E2FA"/>
<circle cx="45" cy="115" r="3" fill="#D6E2FA"/>
<circle cx="3" cy="59" r="3" fill="#D6E2FA"/>
<circle cx="3" cy="129" r="3" fill="#D6E2FA"/>
<circle cx="17" cy="59" r="3" fill="#D6E2FA"/>
<circle cx="17" cy="129" r="3" fill="#D6E2FA"/>
<circle cx="31" cy="59" r="3" fill="#D6E2FA"/>
<circle cx="31" cy="129" r="3" fill="#D6E2FA"/>
<circle cx="45" cy="59" r="3" fill="#D6E2FA"/>
<circle cx="45" cy="129" r="3" fill="#D6E2FA"/>
<circle cx="185" cy="3" r="3" transform="rotate(90 185 3)" fill="#D6E2FA"/>
<circle cx="115" cy="3" r="3" transform="rotate(90 115 3)" fill="#D6E2FA"/>
<circle cx="185" cy="17" r="3" transform="rotate(90 185 17)" fill="#D6E2FA"/>
<circle cx="115" cy="17" r="3" transform="rotate(90 115 17)" fill="#D6E2FA"/>
<circle cx="185" cy="31" r="3" transform="rotate(90 185 31)" fill="#D6E2FA"/>
<circle cx="115" cy="31" r="3" transform="rotate(90 115 31)" fill="#D6E2FA"/>
<circle cx="185" cy="45" r="3" transform="rotate(90 185 45)" fill="#D6E2FA"/>
<circle cx="115" cy="45" r="3" transform="rotate(90 115 45)" fill="#D6E2FA"/>
<circle cx="171" cy="3" r="3" transform="rotate(90 171 3)" fill="#D6E2FA"/>
<circle cx="101" cy="3" r="3" transform="rotate(90 101 3)" fill="#D6E2FA"/>
<circle cx="171" cy="17" r="3" transform="rotate(90 171 17)" fill="#D6E2FA"/>
<circle cx="101" cy="17" r="3" transform="rotate(90 101 17)" fill="#D6E2FA"/>
<circle cx="171" cy="31" r="3" transform="rotate(90 171 31)" fill="#D6E2FA"/>
<circle cx="101" cy="31" r="3" transform="rotate(90 101 31)" fill="#D6E2FA"/>
<circle cx="171" cy="45" r="3" transform="rotate(90 171 45)" fill="#D6E2FA"/>
<circle cx="101" cy="45" r="3" transform="rotate(90 101 45)" fill="#D6E2FA"/>
<circle cx="157" cy="3" r="3" transform="rotate(90 157 3)" fill="#D6E2FA"/>
<circle cx="87" cy="3" r="3" transform="rotate(90 87 3)" fill="#D6E2FA"/>
<circle cx="157" cy="17" r="3" transform="rotate(90 157 17)" fill="#D6E2FA"/>
<circle cx="87" cy="17" r="3" transform="rotate(90 87 17)" fill="#D6E2FA"/>
<circle cx="157" cy="31" r="3" transform="rotate(90 157 31)" fill="#D6E2FA"/>
<circle cx="87" cy="31" r="3" transform="rotate(90 87 31)" fill="#D6E2FA"/>
<circle cx="157" cy="45" r="3" transform="rotate(90 157 45)" fill="#D6E2FA"/>
<circle cx="87" cy="45" r="3" transform="rotate(90 87 45)" fill="#D6E2FA"/>
<circle cx="143" cy="3" r="3" transform="rotate(90 143 3)" fill="#D6E2FA"/>
<circle cx="73" cy="3" r="3" transform="rotate(90 73 3)" fill="#D6E2FA"/>
<circle cx="143" cy="17" r="3" transform="rotate(90 143 17)" fill="#D6E2FA"/>
<circle cx="73" cy="17" r="3" transform="rotate(90 73 17)" fill="#D6E2FA"/>
<circle cx="143" cy="31" r="3" transform="rotate(90 143 31)" fill="#D6E2FA"/>
<circle cx="73" cy="31" r="3" transform="rotate(90 73 31)" fill="#D6E2FA"/>
<circle cx="143" cy="45" r="3" transform="rotate(90 143 45)" fill="#D6E2FA"/>
<circle cx="73" cy="45" r="3" transform="rotate(90 73 45)" fill="#D6E2FA"/>
<circle cx="129" cy="3" r="3" transform="rotate(90 129 3)" fill="#D6E2FA"/>
<circle cx="59" cy="3" r="3" transform="rotate(90 59 3)" fill="#D6E2FA"/>
<circle cx="129" cy="17" r="3" transform="rotate(90 129 17)" fill="#D6E2FA"/>
<circle cx="59" cy="17" r="3" transform="rotate(90 59 17)" fill="#D6E2FA"/>
<circle cx="129" cy="31" r="3" transform="rotate(90 129 31)" fill="#D6E2FA"/>
<circle cx="59" cy="31" r="3" transform="rotate(90 59 31)" fill="#D6E2FA"/>
<circle cx="129" cy="45" r="3" transform="rotate(90 129 45)" fill="#D6E2FA"/>
<circle cx="59" cy="45" r="3" transform="rotate(90 59 45)" fill="#D6E2FA"/>
</svg>